HIERARCHY
ROOT Hips
{
	OFFSET 0.000000 100.481300 0.000000
	CHANNELS 6 Xposition Yposition Zposition Xrotation Yrotation Zrotation
	JOINT Spine
	{
		OFFSET -0.279200 12.230698 -2.892100
		CHANNELS 3 Xrotation Yrotation Zrotation
		JOINT Spine1
		{
			OFFSET -0.325700 14.269203 -3.374200
			CHANNELS 3 Xrotation Yrotation Zrotation
			JOINT Spine2
			{
				OFFSET -0.372300 16.307602 -0.352600
				CHANNELS 3 Xrotation Yrotation Zrotation
				JOINT Neck
				{
					OFFSET -0.418800 17.814194 8.416900
					CHANNELS 3 Xrotation Yrotation Zrotation
					JOINT Head
					{
						OFFSET 0.000000 7.031097 3.806800
						CHANNELS 3 Xrotation Yrotation Zrotation
						JOINT HeadTop_End
						{
							OFFSET 0.000000 24.646606 12.978600
							CHANNELS 3 Xrotation Yrotation Zrotation
							End Site
							{
								OFFSET 0.000000 27.854965 0.000000
							}
						}
					}
				}
				JOINT LeftShoulder
				{
					OFFSET 16.952999 14.495407 -7.737500
					CHANNELS 3 Xrotation Yrotation Zrotation
					JOINT LeftArm
					{
						OFFSET 9.308998 -2.777710 0.208600
						CHANNELS 3 Xrotation Yrotation Zrotation
						JOINT LeftForeArm
						{
							OFFSET 29.972298 0.000000 0.000000
							CHANNELS 3 Xrotation Yrotation Zrotation
							JOINT LeftHand
							{
								OFFSET 26.026505 0.000000 0.000000
								CHANNELS 3 Xrotation Yrotation Zrotation
								JOINT LeftHandThumb1
								{
									OFFSET 12.240501 -7.147949 9.207150
									CHANNELS 3 Xrotation Yrotation Zrotation
									JOINT LeftHandThumb2
									{
										OFFSET 4.138618 -2.389435 2.389433
										CHANNELS 3 Xrotation Yrotation Zrotation
										JOINT LeftHandThumb3
										{
											OFFSET 2.726913 -1.574387 1.574386
											CHANNELS 3 Xrotation Yrotation Zrotation
											JOINT LeftHandThumb4
											{
												OFFSET 3.941010 -2.275345 2.275342
												CHANNELS 3 Xrotation Yrotation Zrotation
												End Site
												{
													OFFSET -0.005798 5.087799 0.009903
												}
											}
										}
									}
								}
								JOINT LeftHandIndex1
								{
									OFFSET 24.424698 -1.985611 5.953459
									CHANNELS 3 Xrotation Yrotation Zrotation
									JOINT LeftHandIndex2
									{
										OFFSET 6.426697 0.000000 0.000000
										CHANNELS 3 Xrotation Yrotation Zrotation
										JOINT LeftHandIndex3
										{
											OFFSET 5.337898 0.000000 0.000000
											CHANNELS 3 Xrotation Yrotation Zrotation
											JOINT LeftHandIndex4
											{
												OFFSET 4.409401 0.000000 0.000000
												CHANNELS 3 Xrotation Yrotation Zrotation
												End Site
												{
													OFFSET 0.000000 4.409363 0.014373
												}
											}
										}
									}
								}
								JOINT LeftHandMiddle1
								{
									OFFSET 23.810104 0.000000 0.000000
									CHANNELS 3 Xrotation Yrotation Zrotation
									JOINT LeftHandMiddle2
									{
										OFFSET 7.176498 0.000000 0.000000
										CHANNELS 3 Xrotation Yrotation Zrotation
										JOINT LeftHandMiddle3
										{
											OFFSET 6.774902 0.000000 0.000000
											CHANNELS 3 Xrotation Yrotation Zrotation
											JOINT LeftHandMiddle4
											{
												OFFSET 5.403328 0.000000 0.000000
												CHANNELS 3 Xrotation Yrotation Zrotation
												End Site
												{
													OFFSET -0.027702 5.403244 0.017414
												}
											}
										}
									}
								}
								JOINT LeftHandRing1
								{
									OFFSET 22.908401 -0.839279 -6.020567
									CHANNELS 3 Xrotation Yrotation Zrotation
									JOINT LeftHandRing2
									{
										OFFSET 6.337502 0.000000 0.000000
										CHANNELS 3 Xrotation Yrotation Zrotation
										JOINT LeftHandRing3
										{
											OFFSET 5.779297 0.000000 0.000000
											CHANNELS 3 Xrotation Yrotation Zrotation
											JOINT LeftHandRing4
											{
												OFFSET 4.965698 0.000000 0.000000
												CHANNELS 3 Xrotation Yrotation Zrotation
												End Site
												{
													OFFSET 0.000000 4.965668 0.016186
												}
											}
										}
									}
								}
								JOINT LeftHandPinky1
								{
									OFFSET 20.037003 -1.530319 -10.950146
									CHANNELS 3 Xrotation Yrotation Zrotation
									JOINT LeftHandPinky2
									{
										OFFSET 5.254700 0.000000 0.000000
										CHANNELS 3 Xrotation Yrotation Zrotation
										JOINT LeftHandPinky3
										{
											OFFSET 4.810204 0.000000 0.000000
											CHANNELS 3 Xrotation Yrotation Zrotation
											JOINT LeftHandPinky4
											{
												OFFSET 3.647202 0.000000 0.000000
												CHANNELS 3 Xrotation Yrotation Zrotation
												End Site
												{
													OFFSET 0.000000 3.647186 0.011889
												}
											}
										}
									}
								}
							}
						}
					}
				}
				JOINT RightShoulder
				{
					OFFSET -15.141001 14.495407 -7.737500
					CHANNELS 3 Xrotation Yrotation Zrotation
					JOINT RightArm
					{
						OFFSET -9.308998 -2.777710 0.208500
						CHANNELS 3 Xrotation Yrotation Zrotation
						JOINT RightForeArm
						{
							OFFSET -29.972300 0.000000 0.000000
							CHANNELS 3 Xrotation Yrotation Zrotation
							JOINT RightHand
							{
								OFFSET -26.026505 0.000000 0.000000
								CHANNELS 3 Xrotation Yrotation Zrotation
								JOINT RightHandThumb1
								{
									OFFSET -12.240601 -7.148026 9.207092
									CHANNELS 3 Xrotation Yrotation Zrotation
									JOINT RightHandThumb2
									{
										OFFSET -4.138618 -2.389435 2.389433
										CHANNELS 3 Xrotation Yrotation Zrotation
										JOINT RightHandThumb3
										{
											OFFSET -2.726974 -1.574417 1.574421
											CHANNELS 3 Xrotation Yrotation Zrotation
											JOINT RightHandThumb4
											{
												OFFSET -3.941010 -2.275345 2.275343
												CHANNELS 3 Xrotation Yrotation Zrotation
												End Site
												{
													OFFSET 0.005814 5.087799 0.009927
												}
											}
										}
									}
								}
								JOINT RightHandIndex1
								{
									OFFSET -24.424698 -1.985657 5.953444
									CHANNELS 3 Xrotation Yrotation Zrotation
									JOINT RightHandIndex2
									{
										OFFSET -6.426697 0.000000 0.000000
										CHANNELS 3 Xrotation Yrotation Zrotation
										JOINT RightHandIndex3
										{
											OFFSET -5.337898 0.000000 0.000000
											CHANNELS 3 Xrotation Yrotation Zrotation
											JOINT RightHandIndex4
											{
												OFFSET -4.409401 0.000000 0.000000
												CHANNELS 3 Xrotation Yrotation Zrotation
												End Site
												{
													OFFSET 0.000000 4.409363 0.014408
												}
											}
										}
									}
								}
								JOINT RightHandMiddle1
								{
									OFFSET -23.810097 0.000000 0.000000
									CHANNELS 3 Xrotation Yrotation Zrotation
									JOINT RightHandMiddle2
									{
										OFFSET -7.176498 0.000000 0.000000
										CHANNELS 3 Xrotation Yrotation Zrotation
										JOINT RightHandMiddle3
										{
											OFFSET -6.774902 0.000000 0.000000
											CHANNELS 3 Xrotation Yrotation Zrotation
											JOINT RightHandMiddle4
											{
												OFFSET -5.403328 0.000000 0.000000
												CHANNELS 3 Xrotation Yrotation Zrotation
												End Site
												{
													OFFSET 0.027702 5.403244 0.017457
												}
											}
										}
									}
								}
								JOINT RightHandRing1
								{
									OFFSET -22.908302 -0.839325 -6.020576
									CHANNELS 3 Xrotation Yrotation Zrotation
									JOINT RightHandRing2
									{
										OFFSET -6.337502 0.000000 0.000000
										CHANNELS 3 Xrotation Yrotation Zrotation
										JOINT RightHandRing3
										{
											OFFSET -5.779297 0.000000 0.000000
											CHANNELS 3 Xrotation Yrotation Zrotation
											JOINT RightHandRing4
											{
												OFFSET -4.965698 0.000000 0.000000
												CHANNELS 3 Xrotation Yrotation Zrotation
												End Site
												{
													OFFSET 0.000000 4.965668 0.016226
												}
											}
										}
									}
								}
								JOINT RightHandPinky1
								{
									OFFSET -20.037003 -1.530334 -10.950259
									CHANNELS 3 Xrotation Yrotation Zrotation
									JOINT RightHandPinky2
									{
										OFFSET -5.254700 0.000000 0.000000
										CHANNELS 3 Xrotation Yrotation Zrotation
										JOINT RightHandPinky3
										{
											OFFSET -4.810204 0.000000 0.000000
											CHANNELS 3 Xrotation Yrotation Zrotation
											JOINT RightHandPinky4
											{
												OFFSET -3.647202 0.000000 0.000000
												CHANNELS 3 Xrotation Yrotation Zrotation
												End Site
												{
													OFFSET 0.000000 3.647186 0.011917
												}
											}
										}
									}
								}
							}
						}
					}
				}
			}
		}
	}
	JOINT LeftUpLeg
	{
		OFFSET 15.427100 -6.655098 0.678600
		CHANNELS 3 Xrotation Yrotation Zrotation
		JOINT LeftLeg
		{
			OFFSET 4.081073 -39.591068 13.024000
			CHANNELS 3 Xrotation Yrotation Zrotation
			JOINT LeftFoot
			{
				OFFSET -4.081074 -37.707932 -15.979700
				CHANNELS 3 Xrotation Yrotation Zrotation
				JOINT LeftToeBase
				{
					OFFSET 5.346399 -15.068900 20.645000
					CHANNELS 3 Xrotation Yrotation Zrotation
					JOINT LeftToe_End
					{
						OFFSET 2.754700 0.931300 11.300900
						CHANNELS 3 Xrotation Yrotation Zrotation
						End Site
						{
							OFFSET 0.000000 11.669021 0.000000
						}
					}
				}
			}
		}
	}
	JOINT RightUpLeg
	{
		OFFSET -15.569500 -6.655098 0.678600
		CHANNELS 3 Xrotation Yrotation Zrotation
		JOINT RightLeg
		{
			OFFSET -4.081825 -39.591045 13.023800
			CHANNELS 3 Xrotation Yrotation Zrotation
			JOINT RightFoot
			{
				OFFSET 4.081824 -37.707954 -15.979600
				CHANNELS 3 Xrotation Yrotation Zrotation
				JOINT RightToeBase
				{
					OFFSET -5.346400 -15.068900 20.645000
					CHANNELS 3 Xrotation Yrotation Zrotation
					JOINT RightToe_End
					{
						OFFSET -2.754700 0.931300 11.300900
						CHANNELS 3 Xrotation Yrotation Zrotation
						End Site
						{
							OFFSET 0.000000 11.669021 0.000000
						}
					}
				}
			}
		}
	}
}
MOTION
Frames: 6
Frame Time: 0.033333
-3.307006 67.171021 7.929066 20.502003 -37.946943 3.608240 24.707094 8.586196 -6.257766 6.670665 -1.649296 -9.549451 9.080018 -4.908603 -3.059469 -17.968800 9.691606 3.405472 -23.477814 20.285838 21.783186 -0.000002 -0.000000 -0.000000 -35.639852 -11.286114 9.588859 -85.662211 -26.596729 -62.334164 0.000032 -36.279653 0.000040 -118.803614 13.575319 23.691619 1.567994 0.456409 2.719340 19.473194 -1.474910 7.636922 -4.536178 -9.613109 1.492979 -0.000001 0.000000 0.000000 -1.882823 2.129415 -39.817015 2.947092 5.081727 -60.200502 0.514386 2.402396 -24.167388 -0.000003 0.000000 0.000001 0.405919 5.507049 -52.453165 3.387138 5.308620 -65.057463 0.282014 1.797451 -17.832391 -0.000001 0.000002 -0.000002 -0.074374 5.736791 -61.061413 4.422094 5.674477 -75.840399 0.582668 2.548976 -25.748003 -0.000000 -0.000006 -0.000000 2.216815 7.072475 -64.435417 4.422639 5.674614 -75.845788 1.294123 3.673925 -38.798456 -0.000000 -0.000000 0.000000 -49.121317 12.547118 19.158182 -34.572918 37.404489 74.073962 -0.000097 108.957193 0.000093 -32.518975 -28.578348 -35.144489 8.377138 -4.904139 11.021999 21.620221 -18.183881 -18.379221 -0.702889 -49.821217 -32.535145 -0.000001 0.000002 0.000002 -1.101413 1.407136 15.159516 1.422379 -3.352168 45.974078 0.615837 -2.316439 29.773112 0.000000 -0.000000 -0.000000 3.413050 -7.186267 51.650259 6.296806 -4.359570 110.634660 0.248704 -1.503068 18.790276 0.000001 0.000000 -0.000000 -3.349039 -2.600423 57.010564 5.440875 -4.590889 99.698168 1.689404 -3.590694 50.382221 0.000000 -0.000000 0.000001 -3.996436 -3.303944 64.593864 4.058845 -4.618662 82.610523 2.315555 -4.026796 59.787234 -0.000000 -0.000000 0.000001 -81.653074 -11.479328 21.473983 78.355309 -6.899545 5.915595 -3.195708 -0.362116 -5.930478 -2.196461 -0.000001 0.000003 -0.000001 -0.000001 -0.000001 -55.792513 -23.784377 1.012393 68.814750 -4.950046 2.937272 -31.940492 -19.324808 -7.745342 -2.444899 0.000017 0.000001 -0.000000 0.000000 0.000000 
0.033833 67.842522 7.604349 20.595005 -38.012366 3.461774 24.330059 8.712898 -5.990998 6.853473 -1.594756 -9.584281 9.263767 -4.856841 -3.097949 -18.261083 9.611494 3.579885 -23.422349 20.509129 21.624498 0.000003 -0.000000 -0.000001 -35.595770 -11.184905 9.834889 -85.842275 -26.999120 -62.262017 0.000011 -36.328537 -0.000006 -119.084854 13.360362 23.769197 1.540373 0.376252 2.715549 19.358339 -1.376022 7.505701 -4.538975 -9.605707 1.454593 0.000001 0.000002 -0.000002 -1.944186 1.999999 -39.440244 2.938585 5.076870 -60.104524 0.510606 2.393945 -24.076789 -0.000002 -0.000000 0.000004 0.389402 5.477996 -52.151076 3.382893 5.306637 -65.011475 0.280586 1.793017 -17.786724 -0.000004 -0.000002 -0.000002 -0.074381 5.736791 -61.061427 4.396127 5.667910 -75.577785 0.582667 2.548977 -25.748010 -0.000001 0.000001 0.000001 2.226035 7.076847 -64.435527 4.394654 5.667537 -75.562588 1.293036 3.672567 -38.781350 0.000000 0.000002 -0.000000 -49.126498 12.595909 19.133957 -34.823163 37.092596 74.287863 -0.000003 109.137134 0.000006 -32.437074 -28.626399 -34.954193 8.322305 -4.766091 11.011023 21.548566 -18.262859 -18.241446 -0.690026 -49.822357 -32.519483 -0.000000 -0.000003 0.000002 -1.115428 1.410667 15.302839 1.422375 -3.352181 45.974171 0.615837 -2.316439 29.773109 -0.000000 0.000000 -0.000000 3.433725 -7.214033 51.399171 6.298596 -4.358917 110.658347 0.249333 -1.504909 18.814145 0.000000 -0.000000 0.000000 -3.327932 -2.619830 57.051064 5.443712 -4.590424 99.733726 1.691669 -3.592557 50.418250 0.000000 0.000000 0.000001 -3.930684 -3.334415 64.586761 4.069303 -4.619997 82.740249 2.324611 -4.032044 59.916195 -0.000000 0.000000 0.000000 -74.643873 -15.328884 26.033413 78.038080 -7.203861 7.406833 -1.636369 0.605457 -6.809758 -4.631385 0.399204 -6.995140 -0.000000 -0.000002 -0.000000 -58.907663 -23.577581 -1.655630 67.414172 -4.159224 2.520596 -27.260993 -19.246602 -6.664569 -2.142463 0.000014 -0.000003 -0.000000 0.000000 -0.000000 
3.274774 68.223404 7.377447 20.798674 -37.991472 3.465025 23.931940 8.786249 -5.800265 7.017501 -1.539845 -9.623509 9.428375 -4.805378 -3.141089 -18.803914 9.443891 3.657360 -23.639367 20.555798 21.418104 -0.000002 0.000000 -0.000000 -35.582000 -10.685280 10.344360 -86.315074 -27.537964 -62.633484 -0.000029 -35.959518 -0.000009 -119.554456 13.147158 23.529705 1.595152 0.465869 2.722652 19.182754 -1.335608 7.800908 -4.538890 -9.604246 1.445813 0.000002 0.000000 -0.000000 -1.999704 1.886035 -39.135126 2.932092 5.073140 -60.031079 0.507742 2.387566 -24.008371 0.000004 0.000000 0.000004 0.362578 5.443373 -51.898977 3.381766 5.306123 -64.999297 0.280221 1.791876 -17.775267 0.000000 0.000001 -0.000003 -0.074384 5.736780 -61.061427 4.370651 5.661308 -75.319549 0.582666 2.548977 -25.748007 0.000000 0.000002 0.000002 2.235837 7.081493 -64.435636 4.370273 5.661211 -75.315533 1.293576 3.673247 -38.789973 0.000000 0.000002 -0.000000 -49.130626 12.639156 19.092064 -35.111281 36.747756 74.516517 -0.000081 109.338973 0.000092 -32.351908 -28.668800 -34.763037 8.269710 -4.641444 11.001134 21.530276 -18.343060 -18.071156 -0.639992 -49.816640 -32.462414 -0.000003 0.000000 0.000000 -1.134107 1.413109 15.498789 1.422372 -3.352193 45.974273 0.615837 -2.316439 29.773112 -0.000000 -0.000000 -0.000000 3.456646 -7.238928 51.256116 6.299044 -4.358734 110.664262 0.249400 -1.505120 18.816980 -0.000000 -0.000000 0.000000 -3.321391 -2.634686 57.128221 5.444423 -4.590285 99.742694 1.692231 -3.593039 50.427379 -0.000000 -0.000000 0.000001 -3.895162 -3.356014 64.619047 4.071518 -4.620288 82.767986 2.326521 -4.033169 59.943550 -0.000000 -0.000000 0.000001 -67.569689 -18.016425 31.073287 77.428083 -7.169888 8.546286 -1.475683 -0.478931 -8.266515 -7.368727 0.872893 -10.173842 0.000001 -0.000000 0.000001 -62.024039 -22.946406 -4.294423 66.229681 -3.632198 2.199266 -22.733170 -19.019024 -5.293931 -1.818067 -0.000041 0.000003 -0.000000 0.000001 0.000000 
6.314988 68.250839 7.224224 21.078505 -37.900860 3.568177 23.525441 8.820138 -5.659128 7.165423 -1.484816 -9.667528 9.576536 -4.754555 -3.189222 -19.121125 9.278700 3.767938 -23.870673 20.621178 21.247370 -0.000001 0.000000 0.000000 -35.546931 -10.545046 10.778978 -86.692060 -27.727071 -62.750621 0.000014 -35.945879 0.000019 -119.687795 12.972123 23.580730 1.643831 0.529997 2.725807 18.940063 -1.405291 8.079041 -4.538125 -9.604952 1.448454 -0.000001 0.000002 -0.000001 -2.007905 1.858801 -39.021926 2.933645 5.074044 -60.048715 0.508506 2.389265 -24.026645 -0.000000 0.000001 0.000003 0.391635 5.463758 -51.855483 3.385322 5.307773 -65.037847 0.281377 1.795492 -17.812085 0.000001 0.000000 0.000001 -0.074369 5.736799 -61.061420 4.357508 5.657862 -75.186190 0.582669 2.548976 -25.748005 0.000001 0.000002 -0.000000 2.237654 7.082373 -64.435643 4.356101 5.657526 -75.171901 1.294046 3.673825 -38.797203 -0.000000 -0.000003 -0.000000 -49.133902 12.680127 19.037995 -35.427699 36.376280 74.753470 -0.000038 109.557027 0.000032 -32.264092 -28.706670 -34.571805 8.260813 -4.622531 10.998297 21.497303 -18.325165 -18.134373 -0.596525 -49.812573 -32.415671 0.000000 0.000003 0.000002 -1.150373 1.441757 15.591382 1.422377 -3.352204 45.974447 0.615837 -2.316439 29.773112 0.000000 0.000000 -0.000000 3.478177 -7.257401 51.228683 6.298919 -4.358787 110.662445 0.249262 -1.504688 18.811304 -0.000000 -0.000000 0.000000 -3.320299 -2.645174 57.199508 5.444149 -4.590370 99.739026 1.692033 -3.592844 50.423902 -0.000000 0.000000 0.000002 -3.899489 -3.363953 64.689357 4.070167 -4.620116 82.751198 2.325350 -4.032483 59.926844 0.000000 -0.000000 -0.000001 -61.198563 -19.445448 35.935671 76.073821 -7.262036 9.299821 -1.436898 -3.598960 -11.076340 -8.134099 1.592687 -13.779072 -0.000001 -0.000002 -0.000000 -65.062996 -22.026216 -6.922395 65.392060 -3.255489 2.096108 -18.647169 -18.583304 -3.885730 -1.453647 -0.000036 -0.000007 0.000000 0.000000 0.000000 
9.381470 67.948540 7.099663 21.398916 -37.746279 3.713882 23.121036 8.820435 -5.529923 7.299906 -1.429899 -9.716748 9.710934 -4.704689 -3.242711 -19.141387 9.110757 4.003968 -24.231638 20.892355 20.995136 0.000000 0.000000 0.000001 -35.514542 -10.446222 11.065755 -87.235572 -27.977783 -62.935760 -0.000008 -35.828529 -0.000001 -119.673534 12.868977 23.654089 1.686538 0.570559 2.725444 18.641779 -1.575944 8.338423 -4.537392 -9.605274 1.448766 0.000000 0.000002 0.000001 -1.993918 1.883913 -39.072647 2.936758 5.075833 -60.083767 0.509908 2.392397 -24.060308 0.000003 0.000001 0.000002 0.393080 5.464355 -51.845651 3.384354 5.307323 -65.027356 0.281051 1.794445 -17.801616 0.000002 0.000000 0.000004 -0.072682 5.737723 -61.061386 4.361397 5.658893 -75.225805 0.582668 2.548975 -25.748005 0.000001 0.000004 0.000002 2.235548 7.081357 -64.435622 4.357616 5.657919 -75.187440 1.294832 3.674802 -38.809528 -0.000001 0.000001 0.000001 -49.136545 12.719632 18.976818 -35.763407 35.984763 74.992656 0.000087 109.785613 -0.000096 -32.174364 -28.741166 -34.381410 8.255827 -4.612775 10.998797 21.452989 -18.303980 -18.200646 -0.585460 -49.808639 -32.406618 -0.000001 -0.000001 -0.000001 -1.138434 1.389303 15.615945 1.422363 -3.352196 45.974232 0.615837 -2.316439 29.773112 -0.000000 -0.000000 0.000000 3.505912 -7.270426 51.416250 6.298263 -4.359041 110.653955 0.249109 -1.504232 18.805442 0.000001 -0.000000 0.000001 -3.318806 -2.648727 57.218393 5.440913 -4.590886 99.698741 1.689499 -3.590781 50.383816 0.000000 0.000000 -0.000002 -3.931074 -3.353547 64.722094 4.056484 -4.618352 82.581358 2.313458 -4.025586 59.757578 0.000000 0.000000 0.000001 -54.783230 -19.524700 40.464674 74.147209 -8.359621 9.206904 -3.000167 -4.640429 -14.967453 -9.536084 1.881307 -15.081146 -0.000002 -0.000004 0.000001 -68.268396 -21.169755 -9.771308 64.797731 -2.928156 2.051082 -14.724583 -17.875324 -2.557664 -1.160479 -0.000020 0.000004 -0.000000 0.000000 -0.000000 
12.412916 67.401917 6.977428 21.726002 -37.551564 3.880718 22.735142 8.795229 -5.414280 7.423580 -1.375313 -9.771582 9.834316 -4.656154 -3.301892 -19.440212 8.971220 4.002413 -24.431590 20.815427 21.066411 -0.000000 -0.000000 -0.000000 -35.459269 -10.298866 11.479718 -87.701043 -28.376730 -63.036758 0.000001 -35.680864 -0.000009 -119.918956 12.692330 23.639071 1.723365 0.589383 2.723668 18.300449 -1.837393 8.576546 -4.537398 -9.602634 1.433173 0.000001 0.000001 -0.000000 -1.954751 1.971840 -39.337115 2.940900 5.078198 -60.130568 0.511723 2.396454 -24.103589 -0.000002 0.000003 0.000004 0.388237 5.471086 -52.040383 3.388214 5.309114 -65.069081 0.282378 1.798572 -17.843681 0.000002 0.000002 0.000000 -0.068627 5.739946 -61.061338 4.378729 5.663412 -75.401402 0.582670 2.548976 -25.748007 0.000001 0.000002 0.000001 2.230013 7.078737 -64.435567 4.383681 5.664702 -75.451365 1.296258 3.676562 -38.831726 -0.000001 -0.000000 0.000000 -49.139192 12.759954 18.913689 -36.109656 35.579890 75.228482 -0.000005 110.019021 -0.000006 -32.083188 -28.773388 -34.192552 8.207387 -4.497260 10.989782 21.349991 -18.350628 -18.195557 -0.553506 -49.806805 -32.369223 -0.000003 0.000000 0.000003 -1.131293 1.329542 15.715763 1.422052 -3.351892 45.968922 0.615837 -2.316439 29.773112 -0.000000 0.000000 0.000000 3.563260 -7.306224 51.611133 6.298049 -4.359111 110.650977 0.249158 -1.504396 18.807594 0.000001 0.000000 -0.000001 -3.317104 -2.658884 57.284445 5.442587 -4.590615 99.719396 1.690796 -3.591845 50.404450 0.000000 0.000000 -0.000000 -3.966985 -3.352807 64.835823 4.072560 -4.620416 82.780800 2.327482 -4.033678 59.956992 0.000000 -0.000000 0.000002 -49.480199 -17.553584 44.331305 70.762003 -9.897228 8.748981 -7.198514 -2.405196 -23.198975 -12.184455 0.896500 -10.423723 0.000001 -0.000000 -0.000000 -71.460724 -20.102012 -12.459187 64.333682 -2.675782 1.968591 -10.921498 -17.365438 -1.231713 -0.953521 0.000003 0.000001 0.000000 0.000000 -0.000000 
